<?xml version="1.0" standalone="no"?>
<!DOCTYPE svg PUBLIC "-//W3C//DTD SVG 20010904//EN"
 "http://www.w3.org/TR/2001/REC-SVG-20010904/DTD/svg10.dtd">
<svg version="1.0" xmlns="http://www.w3.org/2000/svg"
 width="1080.000000pt" height="608.000000pt" viewBox="0 0 1080.000000 608.000000"
 preserveAspectRatio="xMidYMid meet">
<metadata>
Created by potrace 1.16, written by Peter Selinger 2001-2019
</metadata>
<g transform="translate(0.000000,608.000000) scale(0.100000,-0.100000)"
fill="#000000" stroke="none">
<path d="M6406 4045 l-26 -24 0 -1068 c1 -1130 -1 -1086 47 -1111 31 -17 138
-15 172 3 29 15 51 58 51 102 l0 25 30 -26 c43 -36 183 -103 255 -122 88 -23
213 -29 302 -14 161 26 285 90 408 215 94 94 145 177 183 295 23 74 26 101 26
215 0 149 -15 219 -71 330 -43 86 -70 124 -146 199 -121 118 -261 185 -434
207 -90 11 -114 11 -199 -4 -108 -20 -213 -60 -293 -112 -29 -19 -55 -35 -57
-35 -2 0 -4 194 -4 430 0 537 5 520 -143 520 -65 0 -77 -3 -101 -25z m829
-1041 c129 -33 242 -130 308 -263 l42 -85 0 -120 c0 -119 -1 -122 -37 -196
-89 -181 -240 -280 -427 -280 -142 0 -252 50 -355 160 -62 68 -101 142 -116
219 -31 168 13 312 135 435 125 126 287 173 450 130z"/>
<path d="M2397 3647 c-319 -185 -336 -199 -287 -239 13 -10 30 -16 39 -13 9 3
143 80 298 171 183 106 292 164 310 164 18 0 161 -77 403 -216 206 -119 381
-220 388 -226 18 -15 15 -62 -5 -80 -10 -9 -103 -65 -208 -125 -104 -61 -266
-154 -359 -207 -92 -54 -181 -102 -196 -106 -38 -11 -59 0 -375 186 -148 87
-291 169 -317 182 -89 45 -179 25 -215 -48 -16 -31 -18 -73 -21 -355 -4 -360
1 -402 51 -459 21 -23 154 -106 392 -242 198 -114 376 -213 395 -221 21 -10
54 -13 85 -11 43 4 100 34 423 219 205 118 387 228 404 244 52 49 58 77 58
258 0 171 -4 187 -45 187 -41 0 -45 -17 -45 -174 0 -174 -7 -195 -81 -238 -24
-14 -193 -111 -376 -216 -182 -106 -342 -192 -355 -192 -23 0 -70 25 -398 215
-74 43 -189 109 -255 147 -66 38 -128 79 -137 91 -16 20 -18 55 -18 350 0 194
4 336 10 346 15 29 38 32 78 13 20 -10 176 -99 345 -197 255 -147 317 -179
356 -183 60 -5 91 8 304 131 89 52 234 136 322 187 282 162 295 174 295 264 0
63 -40 105 -167 178 -54 31 -228 131 -387 222 -384 221 -315 221 -709 -7z"/>
<path d="M4723 3740 c-12 -5 -27 -18 -33 -29 -7 -15 -11 -233 -10 -735 0 -773
0 -769 56 -880 69 -138 208 -243 369 -281 72 -17 149 -19 177 -4 26 14 48 68
48 117 0 90 -39 132 -122 132 -83 0 -194 75 -233 156 -29 61 -35 143 -35 461
l0 312 164 3 c158 3 165 4 190 27 24 22 26 32 26 102 0 61 -4 82 -19 100 -19
23 -24 24 -190 27 l-171 3 0 224 c0 275 3 268 -117 272 -43 2 -88 -1 -100 -7z"/>
<path d="M5749 3717 c-43 -29 -69 -80 -69 -137 0 -99 62 -160 164 -160 112 0
171 55 171 160 0 105 -59 160 -171 160 -47 0 -69 -5 -95 -23z"/>
<path d="M8340 3266 c-70 -20 -121 -50 -166 -98 -76 -78 -102 -166 -83 -272
24 -133 110 -228 320 -353 147 -87 220 -147 249 -204 69 -134 -50 -279 -229
-279 -109 1 -180 46 -242 155 -44 78 -94 94 -148 49 -31 -26 -31 -26 -31 -127
1 -116 5 -127 76 -199 54 -55 158 -110 242 -127 350 -72 670 210 614 541 -26
147 -124 267 -309 377 -245 145 -292 185 -279 236 9 36 59 58 114 52 39 -4 53
-13 100 -61 59 -61 86 -73 129 -59 45 15 65 64 61 155 -3 76 -4 78 -47 122
-63 64 -146 99 -246 102 -45 2 -99 -2 -125 -10z"/>
<path d="M5739 3214 l-24 -26 -3 -639 c-2 -565 -1 -643 13 -670 20 -38 50 -49
130 -49 54 0 68 4 94 26 l31 26 0 654 0 655 -25 24 c-22 23 -32 25 -108 25
-77 0 -85 -2 -108 -26z"/>
</g>
</svg>
