<?xml version="1.0" standalone="no"?>
<!DOCTYPE svg PUBLIC "-//W3C//DTD SVG 20010904//EN"
 "http://www.w3.org/TR/2001/REC-SVG-20010904/DTD/svg10.dtd">
<svg version="1.0" xmlns="http://www.w3.org/2000/svg"
 width="500.000000pt" height="500.000000pt" viewBox="0 0 500.000000 500.000000"
 preserveAspectRatio="xMidYMid meet">
<metadata>
Created by potrace 1.14, written by Peter Selinger 2001-2017
</metadata>
<g transform="translate(0.000000,500.000000) scale(0.100000,-0.100000)"
fill="#000000" stroke="none">
<path d="M2391 4531 c-21 -13 -11 -145 32 -441 9 -58 19 -134 22 -170 3 -36
10 -90 15 -120 27 -168 44 -263 61 -329 10 -40 16 -77 13 -82 -3 -5 1 -19 8
-31 7 -13 13 -27 14 -33 3 -41 127 -165 164 -165 8 0 24 -10 37 -21 18 -18 25
-20 37 -10 10 8 16 9 21 1 3 -5 14 -10 24 -10 20 0 20 15 1 186 -7 63 -6 92 7
133 13 44 13 60 3 97 -7 25 -10 47 -7 50 11 11 89 -39 164 -105 43 -37 89 -72
103 -76 70 -21 212 -106 360 -217 152 -114 291 -281 335 -403 30 -83 22 -80
202 -66 87 7 161 15 165 17 3 2 2 19 -3 37 -5 17 -9 51 -9 73 0 31 -9 55 -34
92 -19 28 -42 73 -52 99 -44 120 -89 225 -135 312 -28 51 -48 95 -46 98 2 2
34 -25 71 -60 77 -75 87 -69 19 11 -86 100 -277 240 -442 322 -53 27 -105 58
-116 70 -10 11 -30 20 -45 20 -15 0 -41 7 -58 16 -17 8 -84 27 -149 40 -105
23 -202 31 -390 34 -32 0 -33 2 -33 41 0 24 4 38 10 34 15 -9 12 18 -5 42 -9
12 -18 42 -20 67 -4 37 -2 44 10 40 21 -9 19 5 -5 24 -27 23 -39 82 -16 82 22
0 20 9 -6 37 -22 24 -13 33 12 11 8 -7 1 4 -14 25 -18 24 -25 44 -21 57 5 15
-5 27 -44 56 -28 20 -51 41 -51 48 0 6 -25 24 -56 38 -43 21 -60 25 -75 17
-15 -7 -23 -6 -35 6 -18 17 -24 18 -43 6z"/>
<path d="M1850 3906 c-141 -50 -276 -130 -399 -236 -233 -200 -435 -608 -488
-982 l-16 -118 -35 -6 c-47 -9 -163 2 -269 25 -112 25 -219 36 -226 24 -3 -5
-13 -42 -21 -81 -8 -39 -22 -87 -31 -105 -8 -18 -15 -47 -13 -63 1 -16 -2 -35
-6 -42 -4 -7 -2 -35 5 -63 11 -42 21 -56 63 -87 35 -26 58 -35 81 -34 19 2 37
-4 45 -13 17 -20 33 -19 55 5 14 15 22 17 37 9 28 -15 82 19 86 53 l3 26 126
4 c90 2 128 7 131 16 2 6 12 12 22 12 10 0 22 5 25 10 9 15 91 12 133 -5 31
-14 89 -15 424 -11 212 3 398 8 411 11 18 5 23 12 21 31 -1 15 3 24 12 24 19
0 94 31 94 39 -1 15 -90 71 -126 80 -21 5 -31 9 -21 10 27 1 16 24 -19 39 -16
7 -36 17 -44 23 -40 25 -78 31 -245 40 -99 6 -185 12 -191 14 -14 4 21 146 39
160 8 6 12 15 10 22 -2 6 11 14 29 18 50 11 51 14 14 48 -39 38 -56 88 -56
172 0 185 115 376 406 675 109 112 127 126 171 136 26 7 51 10 55 7 4 -2 12
-22 18 -44 16 -59 30 -38 30 45 0 90 -12 104 -108 122 -97 19 -158 16 -232
-10z"/>
<path d="M3100 3320 c19 -13 30 -13 30 0 0 6 -10 10 -22 10 -19 0 -20 -2 -8
-10z"/>
<path d="M3220 3264 c0 -20 54 -74 86 -84 43 -14 50 -10 27 17 -20 23 -113 78
-113 67z"/>
<path d="M3380 3131 c0 -12 221 -213 228 -207 8 8 -37 63 -90 111 -66 59 -138
109 -138 96z"/>
<path d="M1910 2922 c0 -12 19 -26 26 -19 2 2 -2 10 -11 17 -9 8 -15 8 -15 2z"/>
<path d="M3620 2913 c0 -5 9 -18 20 -28 11 -10 20 -14 20 -8 0 5 -9 18 -20 28
-11 10 -20 14 -20 8z"/>
<path d="M1890 2850 c0 -5 5 -10 11 -10 5 0 7 5 4 10 -3 6 -8 10 -11 10 -2 0
-4 -4 -4 -10z"/>
<path d="M1890 2817 c0 -9 -4 -17 -10 -17 -5 0 -10 -8 -10 -17 0 -15 3 -14 22
5 17 17 20 24 10 34 -9 9 -12 8 -12 -5z"/>
<path d="M1862 2749 c2 -7 10 -15 17 -17 8 -3 12 1 9 9 -2 7 -10 15 -17 17 -8
3 -12 -1 -9 -9z"/>
<path d="M1836 2702 c-13 -16 -14 -24 -5 -51 l11 -32 28 26 c25 24 27 31 18
51 -13 29 -29 30 -52 6z"/>
<path d="M2734 2615 c-55 -17 -166 -84 -158 -96 3 -6 -3 -13 -15 -16 -12 -3
-21 -12 -21 -19 0 -8 -4 -14 -9 -14 -27 0 -11 -90 20 -110 5 -3 19 -26 32 -50
12 -24 30 -47 40 -52 9 -4 25 -12 34 -16 21 -10 30 -34 10 -26 -9 3 -16 -3
-20 -15 -5 -22 3 -27 18 -12 18 18 63 0 75 -29 14 -35 45 -44 71 -22 24 21 78
17 96 -6 10 -14 15 -15 30 -4 10 7 33 19 51 27 19 9 32 23 32 34 0 10 7 24 15
31 8 7 13 16 10 20 -3 5 -1 11 4 14 5 3 12 22 15 42 6 27 11 34 23 30 11 -5
13 -2 8 11 -4 10 -13 32 -19 49 -6 18 -18 40 -26 49 -8 10 -14 26 -12 37 2 10
-2 18 -7 18 -6 0 -11 8 -11 18 0 27 -110 89 -191 106 -43 10 -64 10 -95 1z
m41 -465 c3 -5 1 -10 -4 -10 -6 0 -11 5 -11 10 0 6 2 10 4 10 3 0 8 -4 11 -10z"/>
<path d="M1830 2570 c0 -5 5 -10 11 -10 5 0 7 5 4 10 -3 6 -8 10 -11 10 -2 0
-4 -4 -4 -10z"/>
<path d="M4473 2421 c-23 -26 -27 -27 -81 -20 -42 6 -72 4 -116 -8 -48 -13
-66 -14 -105 -4 -55 14 -262 29 -459 33 -128 3 -144 1 -153 -14 -6 -10 -20
-18 -32 -18 -47 0 -51 -16 -11 -44 21 -14 45 -26 52 -26 7 0 11 -4 8 -9 -10
-15 70 -50 136 -60 35 -6 112 -13 171 -17 81 -5 107 -10 103 -19 -2 -7 -22
-42 -44 -78 -22 -37 -41 -83 -45 -109 -18 -132 -102 -265 -273 -435 l-124
-122 -20 -112 c-25 -140 -27 -254 -5 -245 9 3 40 13 69 21 30 9 62 25 71 36
18 19 18 20 -1 35 -17 14 -17 15 -1 10 14 -4 16 -1 12 17 -5 18 -1 26 19 35
22 10 27 9 36 -8 11 -20 11 -20 43 4 18 13 50 32 73 40 50 20 80 66 64 96 -9
18 -5 27 29 66 22 25 47 67 57 92 9 26 21 59 26 75 6 15 26 40 44 56 18 17 36
42 40 56 4 15 13 29 21 32 12 5 11 8 -2 23 -14 15 -12 24 24 101 35 74 51 123
75 232 4 15 13 27 21 27 9 0 15 10 15 25 l0 25 83 -6 c88 -6 141 -14 252 -38
90 -20 104 -20 111 2 4 9 16 40 29 67 63 137 27 202 -116 209 -69 4 -74 3 -96
-23z"/>
<path d="M1138 1905 c-11 -14 -18 -42 -18 -68 0 -37 6 -50 40 -87 22 -24 40
-52 40 -62 0 -21 158 -199 223 -251 58 -48 186 -137 194 -137 4 0 -22 30 -58
68 -61 61 -174 243 -152 242 4 -1 76 -84 158 -186 122 -150 159 -190 198 -210
56 -29 57 -36 4 -25 -47 11 -47 -1 -1 -29 26 -17 45 -21 74 -17 28 3 46 -1 66
-15 54 -37 184 -96 227 -103 23 -4 56 -18 73 -30 27 -21 34 -22 67 -12 20 7
37 15 37 18 0 3 -35 16 -77 29 -95 29 -235 81 -231 85 2 2 48 -10 103 -26 55
-17 164 -43 242 -59 79 -16 157 -36 175 -44 37 -19 83 -22 72 -4 -5 8 0 9 17
4 13 -4 74 -9 136 -13 l111 -6 7 -46 c4 -25 15 -79 26 -120 10 -40 16 -77 13
-82 -3 -5 1 -19 8 -31 6 -13 13 -28 14 -35 7 -41 133 -163 169 -163 7 0 18 -7
26 -16 8 -9 21 -13 35 -10 13 4 26 2 29 -4 3 -5 14 -10 24 -10 20 0 20 35 0
196 -8 66 -6 88 7 125 16 46 16 43 -17 197 -6 28 -18 56 -27 61 -9 5 -13 15
-9 25 4 10 11 14 17 11 13 -8 13 -8 -9 55 -10 30 -22 87 -26 125 -4 39 -13 99
-21 134 -13 53 -13 66 -2 73 10 6 8 12 -9 26 -32 25 -40 69 -17 87 18 13 18
14 -6 35 -17 15 -20 20 -7 16 23 -7 22 7 -4 30 -13 11 -18 26 -15 38 12 46
-181 189 -224 166 -13 -7 -21 -5 -31 6 -7 8 -22 14 -33 12 -19 -3 -21 -9 -21
-88 0 -47 7 -130 14 -185 7 -55 15 -119 18 -142 l5 -43 -65 0 c-97 0 -211 18
-287 46 -37 13 -83 24 -103 24 -21 0 -79 20 -143 48 -140 64 -201 117 -249
217 -41 85 -80 124 -102 102 -20 -19 9 -71 48 -87 48 -20 78 -100 37 -100 -22
0 -135 124 -176 193 -11 19 -24 27 -44 27 -15 0 -96 11 -180 25 -99 16 -191
25 -263 25 -105 -1 -111 -2 -127 -25z"/>
<path d="M1574 1292 c8 -14 79 -60 104 -67 46 -13 20 16 -40 45 -67 33 -72 34
-64 22z"/>
</g>
</svg>
